<svg width="27" height="25" viewBox="0 0 27 25" fill="none" xmlns="http://www.w3.org/2000/svg"><g filter="url(#a)"><path d="M13.44 17c-.3 0-.6-.1-.8-.4-5.41-6.1-6.72-7.5-7.02-7.9A5.4 5.4 0 0 1 10.03 0c1.3 0 2.51.5 3.51 1.3a5.47 5.47 0 0 1 9.03 4.1c0 1.3-.5 2.5-1.3 3.4l-7.02 7.9c-.2.2-.4.3-.8.3ZM7.43 7.5c.3.4 3.5 4 6.11 6.9l6.22-7c.5-.5.7-1.2.7-2 0-1.8-1.5-3.3-3.3-3.3-1 0-2.01.5-2.71 1.3-.3.3-.6.4-.9.4-.3 0-.6-.2-.8-.4-.71-.8-1.71-1.3-2.72-1.3-1.8 0-3.3 1.5-3.3 3.3-.1.9.3 1.6.7 2.1-.1 0-.1 0 0 0Z" fill="#000"/></g><defs><filter id="a" x=".52" y="0" width="26.05" height="25" filterUnits="userSpaceOnUse" color-interpolation-filters="sRGB"><feFlood flood-opacity="0" result="BackgroundImageFix"/><feColorMatrix in="SourceAlpha" values="0 0 0 0 0 0 0 0 0 0 0 0 0 0 0 0 0 0 127 0" result="hardAlpha"/><feOffset dy="4"/><feGaussianBlur stdDeviation="2"/><feComposite in2="hardAlpha" operator="out"/><feColorMatrix values="0 0 0 0 0 0 0 0 0 0 0 0 0 0 0 0 0 0 0.25 0"/><feBlend in2="BackgroundImageFix" result="effect1_dropShadow_24196_812"/><feBlend in="SourceGraphic" in2="effect1_dropShadow_24196_812" result="shape"/></filter></defs></svg>
